<?xml version="1.0" encoding="iso-8859-1"?>
<!-- Generator: Adobe Illustrator 19.0.0, SVG Export Plug-In . SVG Version: 6.00 Build 0)  -->
<svg version="1.1" id="Layer_1" xmlns="http://www.w3.org/2000/svg" xmlns:xlink="http://www.w3.org/1999/xlink" x="0px" y="0px"
	 viewBox="0 0 347.222 347.222" style="enable-background:new 0 0 347.222 347.222;" xml:space="preserve">
<g id="XMLID_1071_">
	<path id="XMLID_597_" style="fill:#FFA250;" d="M347.222,173.611C347.222,77.728,269.493,0,173.611,0C77.728,0,0,77.728,0,173.611
		s77.728,173.611,173.611,173.611S347.222,269.493,347.222,173.611z M92.995,173.611c0-44.523,36.093-80.615,80.615-80.615
		s80.615,36.093,80.615,80.615s-36.093,80.615-80.615,80.615S92.995,218.133,92.995,173.611z"/>
	<g id="XMLID_592_">
		<path id="XMLID_1727_" style="fill:#FFFEB9;" d="M315.334,173.611c0-19.894,5.659-40.778-1.514-58.077
			c-7.436-17.933-26.481-28.622-39.996-42.136c-13.515-13.515-24.203-32.559-42.136-39.996c-17.299-7.173-38.184-1.514-58.077-1.514
			c-19.894,0-40.778-5.659-58.077,1.514C97.6,40.838,86.912,59.882,73.397,73.397S40.838,97.6,33.401,115.533
			c-7.173,17.299-1.514,38.184-1.514,58.077c0,19.894-5.659,40.778,1.514,58.077c7.436,17.933,26.481,28.622,39.996,42.136
			c13.515,13.515,24.203,32.559,42.136,39.996c17.299,7.173,38.184,1.514,58.077,1.514c19.894,0,40.778,5.659,58.077-1.514
			c17.933-7.436,28.622-26.481,42.136-39.996c13.515-13.515,32.559-24.203,39.996-42.136
			C320.994,214.389,315.334,193.505,315.334,173.611z"/>
	</g>
	<path id="XMLID_591_" style="fill:#FFE165;" d="M296.417,173.611c0-26.354-21.364-47.718-47.718-47.718v95.437
		C275.053,221.329,296.417,199.965,296.417,173.611z"/>
	<path id="XMLID_590_" style="fill:#FFE165;" d="M50.805,173.611c0,26.354,21.364,47.718,47.718,47.718v-95.437
		C72.169,125.893,50.805,147.257,50.805,173.611z"/>
	<g id="XMLID_1072_">
		<circle id="XMLID_589_" style="fill:#FFA250;" cx="173.611" cy="258.111" r="22"/>
		<circle id="XMLID_588_" style="fill:#FFA250;" cx="173.611" cy="89.111" r="22"/>
	</g>
	<g id="XMLID_1074_">
		<g id="XMLID_1075_">
			<path id="XMLID_586_" style="fill:#FFE165;" d="M216.355,249.685l1.205-1.205c4.344-4.344,11.388-4.344,15.733,0l17.324,17.324
				c4.344,4.344,4.344,11.388,0,15.733l-1.205,1.205c-4.344,4.344-11.388,4.344-15.733,0l-17.324-17.324
				C212.011,261.073,212.011,254.029,216.355,249.685z"/>
			<path id="XMLID_585_" style="fill:#FFE165;" d="M96.605,249.685l1.205-1.205c4.344-4.344,11.388-4.344,15.733,0l17.324,17.324
				c4.344,4.344,4.344,11.388,0,15.733l-1.205,1.205c-4.344,4.344-11.388,4.344-15.733,0l-17.324-17.324
				C92.26,261.073,92.26,254.029,96.605,249.685z"/>
		</g>
		<g id="XMLID_1076_">
			<path id="XMLID_583_" style="fill:#FFE165;" d="M216.355,65.685l1.205-1.205c4.344-4.344,11.388-4.344,15.733,0l17.324,17.324
				c4.344,4.344,4.344,11.388,0,15.733l-1.205,1.205c-4.344,4.344-11.388,4.344-15.733,0l-17.324-17.324
				C212.011,77.073,212.011,70.029,216.355,65.685z"/>
			<path id="XMLID_582_" style="fill:#FFE165;" d="M96.605,65.685l1.205-1.205c4.344-4.344,11.388-4.344,15.733,0l17.324,17.324
				c4.344,4.344,4.344,11.388,0,15.733l-1.205,1.205c-4.344,4.344-11.388,4.344-15.733,0L96.605,81.418
				C92.26,77.073,92.26,70.029,96.605,65.685z"/>
		</g>
	</g>
	<path id="XMLID_579_" style="fill:#FFA250;" d="M157.009,158.712h33.203c8.194,0,14.899,6.704,14.899,14.899l0,0
		c0,8.194-6.704,14.899-14.899,14.899h-33.203c-8.194,0-14.899-6.704-14.899-14.899l0,0
		C142.111,165.417,148.815,158.712,157.009,158.712z"/>
</g>
<g>
</g>
<g>
</g>
<g>
</g>
<g>
</g>
<g>
</g>
<g>
</g>
<g>
</g>
<g>
</g>
<g>
</g>
<g>
</g>
<g>
</g>
<g>
</g>
<g>
</g>
<g>
</g>
<g>
</g>
</svg>
