<?xml version="1.0" encoding="iso-8859-1"?>
<!-- Generator: Adobe Illustrator 19.0.0, SVG Export Plug-In . SVG Version: 6.00 Build 0)  -->
<svg version="1.1" id="Layer_1" xmlns="http://www.w3.org/2000/svg" xmlns:xlink="http://www.w3.org/1999/xlink" x="0px" y="0px"
	 viewBox="0 0 347.222 347.222" style="enable-background:new 0 0 347.222 347.222;" xml:space="preserve">
<g id="XMLID_1058_">
	<path id="XMLID_1059_" style="fill:#FF5959;" d="M173.611,0C77.728,0,0,77.728,0,173.611s77.728,173.611,173.611,173.611
		s173.611-77.728,173.611-173.611S269.493,0,173.611,0z M173.611,254.226c-44.523,0-80.615-36.093-80.615-80.615
		s36.093-80.615,80.615-80.615s80.615,36.093,80.615,80.615S218.133,254.226,173.611,254.226z"/>
	<g id="XMLID_1065_">
		<path id="XMLID_1726_" style="fill:#FFFEB9;" d="M173.611,31.887c-19.894,0-40.778-5.659-58.077,1.514
			C97.6,40.838,86.912,59.882,73.397,73.397S40.838,97.6,33.401,115.533c-7.173,17.299-1.514,38.184-1.514,58.077
			c0,19.894-5.659,40.778,1.514,58.077c7.436,17.933,26.481,28.622,39.996,42.136c13.515,13.515,24.203,32.559,42.136,39.996
			c17.299,7.173,38.184,1.514,58.077,1.514c19.894,0,40.778,5.659,58.077-1.514c17.933-7.436,28.622-26.481,42.136-39.996
			c13.515-13.515,32.559-24.203,39.996-42.136c7.173-17.299,1.514-38.184,1.514-58.077c0-19.894,5.659-40.778-1.514-58.077
			c-7.436-17.933-26.481-28.622-39.996-42.136c-13.515-13.515-24.203-32.559-42.136-39.996
			C214.389,26.228,193.505,31.887,173.611,31.887z"/>
	</g>
	<circle id="XMLID_1067_" style="fill:#FF5959;" cx="173.611" cy="89.111" r="22"/>
	<circle id="XMLID_1068_" style="fill:#FF5959;" cx="173.611" cy="258.111" r="22"/>
	<g id="XMLID_1069_">
		<circle id="XMLID_586_" style="fill:#FF5959;" cx="258.111" cy="173.611" r="22"/>
		<circle id="XMLID_585_" style="fill:#FF5959;" cx="89.111" cy="173.611" r="22"/>
	</g>
	<circle id="XMLID_583_" style="fill:#FF5959;" cx="233.361" cy="113.86" r="22"/>
	<circle id="XMLID_582_" style="fill:#FF5959;" cx="113.86" cy="233.361" r="22"/>
	<g id="XMLID_1070_">
		<circle id="XMLID_581_" style="fill:#FF5959;" cx="233.361" cy="233.361" r="22"/>
		<circle id="XMLID_580_" style="fill:#FF5959;" cx="113.86" cy="113.86" r="22"/>
	</g>
</g>
<g>
</g>
<g>
</g>
<g>
</g>
<g>
</g>
<g>
</g>
<g>
</g>
<g>
</g>
<g>
</g>
<g>
</g>
<g>
</g>
<g>
</g>
<g>
</g>
<g>
</g>
<g>
</g>
<g>
</g>
</svg>
