<svg width="32px" height="32px" viewBox="0 0 32 32" id="icons" xmlns="http://www.w3.org/2000/svg"><defs><style>.cls-1{fill:#ff968d;}.cls-2{fill:#ff7d7d;}</style></defs><title>Ham</title><circle class="cls-1" cx="16" cy="16" r="15"/><path class="cls-2" d="M26.17,23.85A12.8,12.8,0,0,0,25.6,7.47l-10.07,3,3.33,10.89Z"/><path class="cls-2" d="M14.58,10.71,3.31,14a12.89,12.89,0,0,0-.16,1.83L17.7,20.91Z"/><path class="cls-2" d="M15.24,9.47l9.57-2.81A12.84,12.84,0,0,0,13.39,3.41Z"/><path class="cls-2" d="M19.23,22.5l1.65,5.39a12.87,12.87,0,0,0,4.59-3.22Z"/><path class="cls-2" d="M18.06,22.09,3.19,16.92A12.84,12.84,0,0,0,19.94,28.24Z"/><path class="cls-2" d="M14.28,9.75,12.42,3.66a12.86,12.86,0,0,0-8.89,9.25Z"/></svg>